<svg xmlns="http://www.w3.org/2000/svg" viewBox="2710 2453 25 25"><defs><style>.a{fill:#333;}</style></defs><path class="a" d="M20.074,25.691a12.526,12.526,0,0,1-11.148,0,2.678,2.678,0,0,1-2.871-.652L3.96,22.945a2.68,2.68,0,0,1-.652-2.871,12.528,12.528,0,0,1,0-11.153A2.671,2.671,0,0,1,3.96,6.056L6.055,3.961A2.671,2.671,0,0,1,8.92,3.311a12.525,12.525,0,0,1,11.159,0,2.672,2.672,0,0,1,2.865.649l2.095,2.095a2.67,2.67,0,0,1,.649,2.865,12.526,12.526,0,0,1,0,11.153,2.68,2.68,0,0,1-.652,2.871L22.944,25.04a2.68,2.68,0,0,1-2.87.652ZM10.69,5.006,12.34,7.358l.045.063a7.436,7.436,0,0,1,4.228,0l.03-.041L18.31,5.006a10.269,10.269,0,0,0-7.62,0Zm0,18.989a10.269,10.269,0,0,0,7.62,0L16.643,21.62l-.03-.041a7.438,7.438,0,0,1-4.228,0l-.045.063-1.65,2.352Zm13.3-13.3-2.352,1.651-.064.045a7.438,7.438,0,0,1,0,4.228l.041.03,2.374,1.666a10.269,10.269,0,0,0,0-7.62Zm-18.989,0a10.267,10.267,0,0,0,0,7.619L7.38,16.644l.04-.03a7.438,7.438,0,0,1,0-4.228l-.063-.045L5.006,10.69Zm.562,10.648,2.095,2.095a.4.4,0,0,0,.665-.028l2.185-3.112a.349.349,0,0,0-.031-.385L9.093,18.519a.35.35,0,0,0-.407-.015L5.609,20.663a.409.409,0,0,0-.041.674ZM18.488,8.707a.347.347,0,0,0,.031.385l1.389,1.389a.354.354,0,0,0,.407.015l3.067-2.153a.41.41,0,0,0,.051-.681l-2.1-2.1a.409.409,0,0,0-.674.042l-2.175,3.1Zm-9.78,1.805a.346.346,0,0,0,.385-.031l1.389-1.389a.354.354,0,0,0,.015-.407L8.344,5.618a.41.41,0,0,0-.681-.051l-2.1,2.1a.409.409,0,0,0,.041.674l3.1,2.175Zm12.63,12.92,2.1-2.1a.4.4,0,0,0-.028-.665l-3.112-2.185a.349.349,0,0,0-.385.031l-1.389,1.389a.35.35,0,0,0-.015.407l2.159,3.076a.409.409,0,0,0,.674.041Zm-5.03-4.148a2.515,2.515,0,0,1,.6-.984L18.3,16.912a2.523,2.523,0,0,1,.985-.605,5.142,5.142,0,0,0,0-3.615,2.512,2.512,0,0,1-.985-.6L16.912,10.7a2.525,2.525,0,0,1-.606-.986,5.136,5.136,0,0,0-3.614,0,2.513,2.513,0,0,1-.6.985L10.7,12.088a2.525,2.525,0,0,1-.984.606,5.132,5.132,0,0,0,0,3.614,2.508,2.508,0,0,1,.984.6L12.087,18.3a2.523,2.523,0,0,1,.605.985,5.136,5.136,0,0,0,3.614,0Z" transform="translate(2708 2451)"/></svg>