<svg xmlns="http://www.w3.org/2000/svg" viewBox="8928 966 20.091 26"><defs><style>.a{fill:#525252;}</style></defs><path class="a" d="M9.364,15.591v9.454a.591.591,0,0,0,.591.591H24.136a.593.593,0,0,0,.591-.591V15.591A.591.591,0,0,0,24.136,15H9.955A.593.593,0,0,0,9.364,15.591Zm.591-2.955V9.091a7.091,7.091,0,1,1,14.182,0v3.545a2.955,2.955,0,0,1,2.955,2.955v9.454A2.956,2.956,0,0,1,24.136,28H9.955A2.955,2.955,0,0,1,7,25.045V15.591a2.956,2.956,0,0,1,2.955-2.955Zm2.364,0h9.455V9.091a4.727,4.727,0,1,0-9.455,0Z" transform="translate(8921 964)"/></svg>