<svg xmlns="http://www.w3.org/2000/svg" viewBox="8925 908 26 18.909"><defs><style>.a{fill:#525252;}</style></defs><path class="a" d="M2,10.952A2.955,2.955,0,0,1,4.959,8H25.041A2.959,2.959,0,0,1,28,10.952v13a2.955,2.955,0,0,1-2.959,2.952H4.959A2.959,2.959,0,0,1,2,23.957ZM25.636,15.4,15.609,21.422a1.182,1.182,0,0,1-1.217,0L4.364,15.4v8.552a.6.6,0,0,0,.6.589H25.041a.591.591,0,0,0,.6-.588V15.4Zm-.947-2.188a2.307,2.307,0,0,0,.947-1.667v-.6a.589.589,0,0,0-.587-.589H4.951a.589.589,0,0,0-.587.589v.6a2.317,2.317,0,0,0,.947,1.666L15,19.031Z" transform="translate(8923 900)"/></svg>