<svg xmlns="http://www.w3.org/2000/svg" xmlns:xlink="http://www.w3.org/1999/xlink" viewBox="9103.5 1314 55 55.5"><defs><style>.a{fill:url(#a);}.b{fill:#fff;}.c{filter:url(#b);}</style><linearGradient id="a" x1="0.5" x2="0.5" y2="1" gradientUnits="objectBoundingBox"><stop offset="0" stop-color="#f1c40f"/><stop offset="1" stop-color="#ffa300"/></linearGradient><filter id="b" x="9103.5" y="1314" width="55" height="55.5" filterUnits="userSpaceOnUse"><feOffset dy="8" input="SourceAlpha"/><feGaussianBlur stdDeviation="2.5" result="c"/><feFlood flood-opacity="0.2"/><feComposite operator="in" in2="c"/><feComposite in="SourceGraphic"/></filter></defs><g transform="translate(9111.32 1314.223)"><g class="c" transform="matrix(1, 0, 0, 1, -9111.32, -1314.22)"><circle class="a" cx="20" cy="20" r="20" transform="translate(9111 1314)"/></g><path class="b" d="M62.449,35.583l.776-6.032h-6V25.707c0-1.764.494-2.928,3-2.928h3.21V17.347a43.242,43.242,0,0,0-4.656-.247c-4.621,0-7.76,2.822-7.76,7.972v4.444H45.8v6.032h5.22V51a19.451,19.451,0,0,0,6.243-1.446V35.583Z" transform="translate(-29.645 -11.068)"/></g></svg>