<svg xmlns="http://www.w3.org/2000/svg" viewBox="8925 817 146.8 40"><defs><style>.a{fill:#5e7fb1;}.b{fill:none;}</style></defs><g transform="translate(8923.8 816.1)"><g transform="translate(1.2 13)"><path class="a" d="M3.1,21.3a10.039,10.039,0,0,0,.4,2.4,4.352,4.352,0,0,0,.9,1.8A4.26,4.26,0,0,0,7.9,27a7.167,7.167,0,0,0,4.4-1.7l.9,1.5a9.45,9.45,0,0,1-5.6,1.9,5.8,5.8,0,0,1-4.7-2.1,6.61,6.61,0,0,1-1.3-2.5,11.488,11.488,0,0,1-.4-3.3,9.427,9.427,0,0,1,.5-3,7.68,7.68,0,0,1,1.4-2.5,7.231,7.231,0,0,1,2.2-1.7A5.954,5.954,0,0,1,8,13a5.421,5.421,0,0,1,4.4,2,8.551,8.551,0,0,1,1.5,5.3v.9H3.1Zm8.7-1.8A5.843,5.843,0,0,0,10.6,16a3.489,3.489,0,0,0-2.8-1.2,5.663,5.663,0,0,0-1.8.3,2.805,2.805,0,0,0-1.4,1,9.878,9.878,0,0,0-.9,1.5,10.564,10.564,0,0,0-.6,1.9Z" transform="translate(-1.2 -13)"/><path class="a" d="M21.4,13.1a4.975,4.975,0,0,1,3.7,1.4,5.88,5.88,0,0,1,1.3,4.2v9.7H24.5V26.8a4.349,4.349,0,0,1-.7.6c-.3.2-.5.4-.8.6a6.094,6.094,0,0,1-3.2.8,4.547,4.547,0,0,1-3.4-1.2,4.01,4.01,0,0,1-1.3-3.1,6.463,6.463,0,0,1,.6-2.1A4.708,4.708,0,0,1,17,20.9a5.076,5.076,0,0,1,1.8-.9,7.107,7.107,0,0,1,2.1-.3,13.665,13.665,0,0,1,1.9.2,5.626,5.626,0,0,1,1.8.7V18.8a5.528,5.528,0,0,0-.9-2.9,2.644,2.644,0,0,0-2.3-1,6.437,6.437,0,0,0-4.5,1.8l-1.2-1.2A7.186,7.186,0,0,1,21.4,13.1ZM17,24.4a2.56,2.56,0,0,0,.8,1.9A3.069,3.069,0,0,0,20,27a4.722,4.722,0,0,0,3.2-1h0a3.819,3.819,0,0,0,.9-.9c.2-.3.4-.5.4-.7V22.2a4.759,4.759,0,0,0-1.8-.8,12.232,12.232,0,0,0-1.7-.3,6.8,6.8,0,0,0-1.5.2,4.15,4.15,0,0,0-1.3.7,2.539,2.539,0,0,0-.8,1A3.255,3.255,0,0,0,17,24.4Z" transform="translate(-1.2 -13)"/><path class="a" d="M28.6,25.5a3.592,3.592,0,0,0,1,.7,9.251,9.251,0,0,0,1,.5l.9.3a2.152,2.152,0,0,0,.8,0c2.1,0,3.1-.8,3.1-2.5a2.353,2.353,0,0,0-.2-.8,1.794,1.794,0,0,0-.5-.7,7.018,7.018,0,0,0-.9-.6c-.3-.2-.8-.4-1.4-.7a9.7,9.7,0,0,1-3-1.9,3.656,3.656,0,0,1-.9-2.5,3.95,3.95,0,0,1,1.4-3.1,5.074,5.074,0,0,1,3.5-1.1,7.272,7.272,0,0,1,4,1.3L36.7,16a6.4,6.4,0,0,0-3.5-1.2,2.817,2.817,0,0,0-2.1.7,2.136,2.136,0,0,0-.8,1.7,2.456,2.456,0,0,0,.5,1.5,9.685,9.685,0,0,0,.9.7,5.226,5.226,0,0,0,1.5.7,10.93,10.93,0,0,1,1.9,1,6.233,6.233,0,0,1,1.2.9,3.486,3.486,0,0,1,.9,2.5,4.1,4.1,0,0,1-1.4,3.1,5.489,5.489,0,0,1-3.7,1.2,5.7,5.7,0,0,1-2.2-.4,11.945,11.945,0,0,1-2.2-1.2Z" transform="translate(-1.2 -13)"/><path class="a" d="M44.8,31.2a15.042,15.042,0,0,1-.9,1.8,4,4,0,0,1-1,1.2,3.746,3.746,0,0,1-1.2.7,6.052,6.052,0,0,1-1.5.2,1.7,1.7,0,0,1-.7-.1c-.2-.1-.5-.1-.8-.2l.6-1.8a1.4,1.4,0,0,0,.9.3c1,0,1.9-.7,2.5-2.2L44,28c-.9-2.4-1.8-4.8-2.8-7.3s-1.9-4.9-2.8-7.3h2.1L45,25.3l.1.4v-.2l4.7-12h2Z" transform="translate(-1.2 -13)"/></g><g transform="translate(90 6.5)"><path class="a" d="M91.9,24.4a3.161,3.161,0,0,0,.4,1.9,1.557,1.557,0,0,0,1.4.6,3.987,3.987,0,0,0,2-.7v1.9a5.638,5.638,0,0,1-1.2.4,3.751,3.751,0,0,1-1,.1c-2.3,0-3.5-1.4-3.5-4.1V6.5h1.9V24.4Z" transform="translate(-90 -6.5)"/><path class="a" d="M106.2,28.4v-2a5.146,5.146,0,0,1-4.4,2.4h0c-3.6,0-5.4-2.2-5.4-6.7V13.5h1.9v8.3a6.74,6.74,0,0,0,.9,4,3.29,3.29,0,0,0,2.8,1.3,3.691,3.691,0,0,0,2.3-.7,7.029,7.029,0,0,0,1.9-2.2V13.4h1.9v15Z" transform="translate(-90 -6.5)"/><path class="a" d="M111.8,28.4H110v-15h1.9v1.8a5.733,5.733,0,0,1,4.7-2.2,4.515,4.515,0,0,1,3.8,1.6,7.121,7.121,0,0,1,1.3,4.7v9.1h-1.9V19.7a6.311,6.311,0,0,0-.9-3.7,3.307,3.307,0,0,0-2.6-1.3,7.732,7.732,0,0,0-2.7.8,4.144,4.144,0,0,0-1.8,1.9Z" transform="translate(-90 -6.5)"/><path class="a" d="M134.9,27.3a15.079,15.079,0,0,1-2.6,1.2,7.1,7.1,0,0,1-2.4.4,6.421,6.421,0,0,1-5-2.1,7.842,7.842,0,0,1-1.9-5.5,8.291,8.291,0,0,1,.6-3.2,9.34,9.34,0,0,1,1.5-2.6,8.068,8.068,0,0,1,2.4-1.7,7.306,7.306,0,0,1,3-.6,7.716,7.716,0,0,1,4.3,1.3l-1.1,1.4a6.434,6.434,0,0,0-3.5-1,5.066,5.066,0,0,0-3.9,1.7,6.792,6.792,0,0,0-1.5,4.5,6.532,6.532,0,0,0,1.4,4.3,4.375,4.375,0,0,0,3.6,1.6,5.846,5.846,0,0,0,3.8-1.3Z" transform="translate(-90 -6.5)"/><path class="a" d="M146.2,28.4V19.5a5.968,5.968,0,0,0-.9-3.6,3.1,3.1,0,0,0-2.7-1.1c-1.7,0-3.1,1.1-4.4,3.3V28.5h-1.9V6.5h1.9v8.9a5.825,5.825,0,0,1,4.7-2.3,4.515,4.515,0,0,1,3.8,1.6,7,7,0,0,1,1.3,4.6v9.2h-1.8Z" transform="translate(-90 -6.5)"/></g><g transform="translate(56 0.9)"><path class="b" d="M69.4,26a1.466,1.466,0,0,0-.8-1.5,5.055,5.055,0,0,1-2.8-4.9c0-2.1,0-4.3.1-6.4V9.3a1.737,1.737,0,0,1,.3-1.2,2.151,2.151,0,0,1,1-.2h.1c.8,0,1.1.2,1.1,1.4v7a.952.952,0,0,0,.2.7.764.764,0,0,0,.5.2h0c.2,0,.4,0,.5-.2a.952.952,0,0,0,.2-.7V9.2c0-1.2.3-1.3,1.1-1.4h0c.9,0,1.1.2,1.1,1.4v7.1a.952.952,0,0,0,.2.7.764.764,0,0,0,.5.2,1.421,1.421,0,0,0,.6-.2.952.952,0,0,0,.2-.7v-7c0-1.2.3-1.4,1.1-1.4a2.676,2.676,0,0,1,1.1.2c.2.2.3.5.3,1.2v3.9c0,2.1,0,4.3.1,6.4a5.055,5.055,0,0,1-2.8,4.9,1.466,1.466,0,0,0-.8,1.5v1.4a11.6,11.6,0,1,0-3.4,0V26.2C69.4,26.1,69.4,26,69.4,26Z" transform="translate(-56 -0.9)"/><path class="a" d="M71,.9a14.98,14.98,0,0,0-15,15c0,6.5,9.4,18.3,13.3,23,1,1.2,1.7,2,1.7,2a22.442,22.442,0,0,0,1.7-2C76.6,34.2,86,22.4,86,15.9A15.044,15.044,0,0,0,71,.9Zm1.6,26.5V26a1.466,1.466,0,0,1,.8-1.5,5.055,5.055,0,0,0,2.8-4.9c0-2.1,0-4.3-.1-6.4V9.3a1.737,1.737,0,0,0-.3-1.2c-.2-.2-.5-.2-1.1-.2-.8,0-1.1.2-1.1,1.4v7a.952.952,0,0,1-.2.7.845.845,0,0,1-.6.2c-.2,0-.4,0-.5-.2a.952.952,0,0,1-.2-.7V9.2c0-1.2-.3-1.3-1.1-1.4h0c-.9,0-1.1.2-1.1,1.4v7.1a.952.952,0,0,1-.2.7.764.764,0,0,1-.5.2h0a.764.764,0,0,1-.5-.2.952.952,0,0,1-.2-.7v-7c0-1.2-.3-1.4-1.1-1.4h-.1a2.151,2.151,0,0,0-1,.2c-.2.2-.3.5-.3,1.2v3.9c0,2.1,0,4.3-.1,6.4a5.055,5.055,0,0,0,2.8,4.9,1.466,1.466,0,0,1,.8,1.5v1.4A11.612,11.612,0,1,1,82.8,15.9,11.909,11.909,0,0,1,72.6,27.4Z" transform="translate(-56 -0.9)"/></g></g></svg>