<svg xmlns="http://www.w3.org/2000/svg" viewBox="2704 42 20 15"><defs><style>.a{fill:#333;}</style></defs><g transform="translate(2702 34)"><g transform="translate(2 8)"><path class="a" d="M16.163,21.594A1.835,1.835,0,0,1,14.4,23H3.82A1.853,1.853,0,0,1,2,21.116l0-.069c.005-.071.015-.191.029-.342.024-.253.053-.508.088-.748A4.342,4.342,0,0,1,2.4,18.818c.535-1.179,4.147-2.741,6.713-2.741a11.327,11.327,0,0,1,3.963.865,8.409,8.409,0,0,1,3.592-.973c1.925,0,4.6,1.2,5.03,2.186a3.5,3.5,0,0,1,.216.906c.025.183.047.375.064.566.01.115.018.205.021.26l0,.067a1.6,1.6,0,0,1-1.554,1.641Zm-.987-3.506a2.166,2.166,0,0,1,.648.73,3.69,3.69,0,0,1,.242.9H20.2c-.013-.133-.028-.264-.045-.386s-.038-.24-.052-.312c-.042-.035-.1-.075-.163-.12a5.918,5.918,0,0,0-.865-.47,6.153,6.153,0,0,0-2.407-.587,5.292,5.292,0,0,0-1.491.244Zm1.491-3.056A2.743,2.743,0,0,1,14,12.219a2.67,2.67,0,1,1,5.333,0A2.743,2.743,0,0,1,16.667,15.031Zm0-1.875a.939.939,0,1,0-.889-.937A.914.914,0,0,0,16.667,13.156ZM9.111,14.923a3.375,3.375,0,0,1-3.282-3.462A3.375,3.375,0,0,1,9.111,8a3.375,3.375,0,0,1,3.282,3.462A3.375,3.375,0,0,1,9.111,14.923Zm0-1.875a1.589,1.589,0,1,0-1.5-1.587A1.547,1.547,0,0,0,9.111,13.048Zm5.12,6.634a2.971,2.971,0,0,0-.334-.246,8.753,8.753,0,0,0-1.265-.663,9.262,9.262,0,0,0-3.521-.822,9.262,9.262,0,0,0-3.521.822,8.751,8.751,0,0,0-1.265.663,2.968,2.968,0,0,0-.334.246l-.01.009a5.165,5.165,0,0,0-.1.547c-.03.205-.055.428-.077.652-.009.091-.015.167-.02.225a.087.087,0,0,0,.04.009H14.4a.088.088,0,0,0,.04-.009c0-.057-.011-.134-.02-.225-.021-.224-.047-.447-.077-.652a5.169,5.169,0,0,0-.1-.547Z" transform="translate(-2 -8)"/></g></g></svg>