<svg enable-background="new 0 0 48 48" height="48" viewBox="0 0 48 48" width="48" xmlns="http://www.w3.org/2000/svg"><path d="m6.225 39.273c-.4.706-.386.727.48.727h34.59c.865 0 .879-.023.48-.727l-17.413-30.75c-.394-.697-.33-.697-.724 0l-17.413 30.748zm21.617-32.723 17.414 30.75c1.922 3.397-.059 6.7-3.961 6.7h-34.59c-3.905 0-5.881-3.305-3.96-6.698l17.413-30.75c1.926-3.403 5.76-3.402 7.685 0zm-3.842 30.45c1.104 0 2-.896 2-2s-.896-2-2-2-2 .896-2 2 .896 2 2 2zm-2-18v10c0 1.104.896 2 2 2s2-.896 2-2v-10c0-1.104-.896-2-2-2s-2 .896-2 2z" fill="#ff3131"/></svg>