<svg xmlns="http://www.w3.org/2000/svg" viewBox="2700 493 35 35"><defs><style>.a{fill:#2ecc71;}.b{fill:#fff;}</style></defs><g transform="translate(2668)"><circle class="a" cx="17.5" cy="17.5" r="17.5" transform="translate(32 493)"/><g transform="translate(36.667 502.333)"><path class="b" d="M27.329,15.593H25.61a9.862,9.862,0,0,0-.941-3.607,10.437,10.437,0,0,0-8.464-5.9V5.277c.073,0,1.822.1,1.4-.771A2.777,2.777,0,0,0,15.33,3a2.777,2.777,0,0,0-2.271,1.506c-.419.874,1.33.771,1.4.771V6.1A10.694,10.694,0,0,0,8.129,8.969a10.011,10.011,0,0,0-3.115,6.625H3.338a.838.838,0,1,0,0,1.676H27.329a.838.838,0,0,0,0-1.676Zm-21.082,0a9.1,9.1,0,0,1,18.131,0Z" transform="translate(-2.5 -3)"/><path class="b" d="M100.232,117.671a7.741,7.741,0,0,0-2.368,2.568.436.436,0,0,0,.194.589.37.37,0,0,0,.194.049.442.442,0,0,0,.389-.243,7.017,7.017,0,0,1,2.052-2.222.436.436,0,0,0-.461-.741Z" transform="translate(-92.029 -110.645)"/><path class="b" d="M157.6,94.856a3.844,3.844,0,0,0-1.336.589.362.362,0,0,0-.036.024.441.441,0,0,0-.128.607.445.445,0,0,0,.37.2.419.419,0,0,0,.237-.073.564.564,0,0,0,.049-.03,3.029,3.029,0,0,1,1.032-.461.438.438,0,1,0-.188-.856Z" transform="translate(-146.704 -89.27)"/></g></g></svg>