<svg xmlns="http://www.w3.org/2000/svg" viewBox="2873.233 40 20.667 20">
  <defs>
    <style>
      .cls-1 {
        fill: #5E7FB1;
      }
    </style>
  </defs>
  <path id="clock-1" class="cls-1" d="M12.333,22A10.171,10.171,0,0,1,2,12,10.171,10.171,0,0,1,12.333,2,10.171,10.171,0,0,1,22.667,12,10.171,10.171,0,0,1,12.333,22Zm0-1.818A8.322,8.322,0,0,0,20.788,12a8.322,8.322,0,0,0-8.455-8.182A8.322,8.322,0,0,0,3.879,12,8.322,8.322,0,0,0,12.333,20.182ZM13,12.643a.953.953,0,0,1-.664.266H8.106a.91.91,0,1,1,0-1.818h3.288V6.545a.94.94,0,0,1,1.879,0V12A.892.892,0,0,1,13,12.643Z" transform="translate(2871.233 38)"/>
</svg>
