<svg xmlns="http://www.w3.org/2000/svg" viewBox="2799 623 25.278 26"><defs><style>.a{fill:#95989A;}</style></defs><g transform="translate(2798.7 622.5)"><path class="a" d="M10.744,2.811A1.318,1.318,0,0,1,9.3,1.656,1.318,1.318,0,0,1,10.744.5H24.467c2.022,0,3.611,1.3,3.611,2.961V23.539c0,1.661-1.589,2.961-3.611,2.961H10.744A1.318,1.318,0,0,1,9.3,25.344a1.318,1.318,0,0,1,1.444-1.156H24.467a.661.661,0,0,0,.722-.578V3.389c0-.361-.289-.578-.722-.578Z" transform="translate(-2.5)"/><path class="a" d="M.3,18.172H5.789a1.106,1.106,0,0,1,1.156.578A3.671,3.671,0,0,0,10.7,20.844c1.661,0,3.25,0,4.911-.072h3.033a1.355,1.355,0,0,0,.939-.217c.144-.144.144-.361.144-.794,0-.65-.144-.867-1.083-.867H13.228a.971.971,0,0,1-.578-.144c-.144-.072-.144-.289-.144-.433s0-.289.144-.361a.778.778,0,0,1,.578-.144h5.489c.867,0,1.011-.217,1.011-.867v-.072h0c0-.65-.144-.867-1.011-.867H13.228a.971.971,0,0,1-.578-.144.611.611,0,0,1-.144-.433h0a1.027,1.027,0,0,1,.144-.433.778.778,0,0,1,.578-.144h5.417c.867,0,1.011-.217,1.083-.867v-.072a1.34,1.34,0,0,0-.144-.722,1.355,1.355,0,0,0-.939-.217H15.683c-1.661,0-3.25,0-4.911-.072a3.907,3.907,0,0,0-3.756,2.094.987.987,0,0,1-1.156.578H.372C.3,16.15.3,17.667.3,18.172Z" transform="translate(0 -3.444)"/></g></svg>