<svg xmlns="http://www.w3.org/2000/svg" xmlns:xlink="http://www.w3.org/1999/xlink" viewBox="2707 623 19.5 26"><defs><style>.a{fill:url(#a);}</style><linearGradient id="a" x1="0.5" x2="0.5" y2="1" gradientUnits="objectBoundingBox"><stop offset="0" stop-color="#525252"/><stop offset="1" stop-color="#525252"/></linearGradient></defs><g transform="translate(2466 394)"><path class="a" d="M9.75,0A9.737,9.737,0,0,0,0,9.75C0,13.975,6.11,21.645,8.645,24.7,9.3,25.48,9.75,26,9.75,26a14.587,14.587,0,0,0,1.1-1.3C13.39,21.645,19.5,13.975,19.5,9.75A9.737,9.737,0,0,0,9.75,0Zm1.04,17.225v-.91a.953.953,0,0,1,.52-.975,3.286,3.286,0,0,0,1.82-3.185c0-1.365,0-2.8-.065-4.16V5.46a1.129,1.129,0,0,0-.195-.78c-.13-.13-.325-.13-.715-.13-.52,0-.715.13-.715.91v4.55a.619.619,0,0,1-.13.455.549.549,0,0,1-.39.13c-.13,0-.26,0-.325-.13a.619.619,0,0,1-.13-.455V5.395c0-.78-.195-.845-.715-.91h0c-.585,0-.715.13-.715.91V10.01a.619.619,0,0,1-.13.455.5.5,0,0,1-.325.13h0a.5.5,0,0,1-.325-.13.619.619,0,0,1-.13-.455V5.46c0-.78-.195-.91-.715-.91H7.345a1.4,1.4,0,0,0-.65.13c-.195.065-.26.325-.26.715V7.93c0,1.365,0,2.795-.065,4.16a3.286,3.286,0,0,0,1.82,3.185.953.953,0,0,1,.52.975v.91a7.447,7.447,0,0,1-6.5-7.41,7.54,7.54,0,1,1,8.58,7.475Z" transform="translate(241 229)"/></g></svg>