<svg xmlns="http://www.w3.org/2000/svg" xmlns:xlink="http://www.w3.org/1999/xlink" viewBox="53 142.19 270 73.519"><defs><style>.a{fill:url(#a);}.b{fill:url(#b);}.c{fill:url(#c);}.d{fill:url(#d);}.e{fill:url(#e);}.f{fill:url(#f);}.g{fill:url(#g);}.h{fill:url(#h);}.i{fill:url(#i);}.j{fill:none;}.k{fill:url(#j);}</style><linearGradient id="a" x1="0.496" y1="-0.783" x2="0.496" y2="1.79" gradientUnits="objectBoundingBox"><stop offset="0" stop-color="#f1c40f"/><stop offset="1" stop-color="#ffa300"/></linearGradient><linearGradient id="b" x1="0.498" y1="-0.788" x2="0.498" y2="1.801" xlink:href="#a"/><linearGradient id="c" x1="0.51" y1="-0.79" x2="0.51" y2="1.766" xlink:href="#a"/><linearGradient id="d" x1="0.512" y1="-0.585" x2="0.512" y2="1.276" xlink:href="#a"/><linearGradient id="e" x1="0.497" y1="-0.262" x2="0.497" y2="1.566" xlink:href="#a"/><linearGradient id="f" x1="0.498" y1="-0.823" x2="0.498" y2="1.798" xlink:href="#a"/><linearGradient id="g" x1="0.501" y1="-0.798" x2="0.501" y2="1.825" xlink:href="#a"/><linearGradient id="h" x1="0.506" y1="-0.789" x2="0.506" y2="1.783" xlink:href="#a"/><linearGradient id="i" x1="0.505" y1="-0.263" x2="0.505" y2="1.573" xlink:href="#a"/><linearGradient id="j" x1="0.499" y1="-0.01" x2="0.499" y2="0.999" xlink:href="#a"/></defs><g transform="translate(53 142.19)"><g transform="translate(0 22.24)"><path class="a" d="M3.492,27.171a18.451,18.451,0,0,0,.735,4.411A8.153,8.153,0,0,0,12.5,37.832a13.172,13.172,0,0,0,8.087-3.125l1.654,2.757a17.369,17.369,0,0,1-10.293,3.492A10.666,10.666,0,0,1,3.308,37.1,12.15,12.15,0,0,1,.919,32.5,20.037,20.037,0,0,1,0,26.436a17.327,17.327,0,0,1,.919-5.514,14.116,14.116,0,0,1,2.573-4.595A13.29,13.29,0,0,1,7.536,13.2,10.943,10.943,0,0,1,12.5,12.1a9.964,9.964,0,0,1,8.087,3.676c1.838,2.389,2.757,5.7,2.757,9.741v1.654Zm16.174-3.125a10.739,10.739,0,0,0-2.206-6.433,6.413,6.413,0,0,0-5.146-2.206,10.408,10.408,0,0,0-3.308.551A5.156,5.156,0,0,0,6.433,17.8a6.921,6.921,0,0,0-1.654,2.757,19.417,19.417,0,0,0-1.1,3.492Z" transform="translate(0 -12.1)"/><path class="b" d="M25.479,12.1a9.143,9.143,0,0,1,6.8,2.573c1.654,1.654,2.389,4.411,2.389,7.72V40.221H31.177V37.28a8,8,0,0,1-1.287,1.1,6.448,6.448,0,0,1-1.47.919,11.2,11.2,0,0,1-5.882,1.47,8.357,8.357,0,0,1-6.249-2.206,7.37,7.37,0,0,1-2.389-5.7,11.879,11.879,0,0,1,1.1-3.86,8.653,8.653,0,0,1,2.389-2.757A9.33,9.33,0,0,1,20.7,24.6a13.062,13.062,0,0,1,3.86-.551,25.114,25.114,0,0,1,3.492.368A10.34,10.34,0,0,1,31.361,25.7V22.393a10.16,10.16,0,0,0-1.654-5.33,4.859,4.859,0,0,0-4.227-1.838,11.831,11.831,0,0,0-8.271,3.308L15,16.327A13.978,13.978,0,0,1,25.479,12.1ZM17.392,32.869a4.706,4.706,0,0,0,1.47,3.492,5.641,5.641,0,0,0,4.044,1.287,8.679,8.679,0,0,0,5.882-1.838h0a7.019,7.019,0,0,0,1.654-1.654c.368-.551.735-.919.735-1.287V28.826a8.747,8.747,0,0,0-3.308-1.47,22.484,22.484,0,0,0-3.125-.551,12.505,12.505,0,0,0-2.757.368A7.628,7.628,0,0,0,19.6,28.458a4.667,4.667,0,0,0-1.47,1.838A6.815,6.815,0,0,0,17.392,32.869Z" transform="translate(11.648 -12.1)"/><path class="c" d="M28.154,34.907a6.6,6.6,0,0,0,1.838,1.287,17,17,0,0,0,1.838.919l1.654.551a4.047,4.047,0,0,0,1.47.184c3.86,0,5.7-1.47,5.7-4.595a4.326,4.326,0,0,0-.368-1.47,3.3,3.3,0,0,0-.919-1.287,12.9,12.9,0,0,0-1.654-1.1c-.551-.368-1.47-.735-2.573-1.287a17.835,17.835,0,0,1-5.514-3.492A6.72,6.72,0,0,1,27.97,20.02a7.26,7.26,0,0,1,2.573-5.7A9.326,9.326,0,0,1,36.977,12.3a13.365,13.365,0,0,1,7.352,2.389l-1.287,3.125a11.772,11.772,0,0,0-6.433-2.206,5.178,5.178,0,0,0-3.86,1.287,3.926,3.926,0,0,0-1.47,3.125,4.515,4.515,0,0,0,.919,2.757,17.8,17.8,0,0,0,1.654,1.287,9.6,9.6,0,0,0,2.757,1.287A20.089,20.089,0,0,1,40.1,27.188a11.456,11.456,0,0,1,2.206,1.654,6.407,6.407,0,0,1,1.654,4.595,7.537,7.537,0,0,1-2.573,5.7,10.088,10.088,0,0,1-6.8,2.206,10.477,10.477,0,0,1-4.044-.735A21.956,21.956,0,0,1,26.5,38.4Z" transform="translate(22.207 -11.932)"/><path class="d" d="M48.879,45.216a27.647,27.647,0,0,1-1.654,3.308,7.355,7.355,0,0,1-1.838,2.206,6.208,6.208,0,0,1-2.022,1.287,11.125,11.125,0,0,1-2.757.368,3.128,3.128,0,0,1-1.287-.184c-.368-.184-.919-.184-1.47-.368l1.1-3.308a2.566,2.566,0,0,0,1.654.551c1.838,0,3.492-1.287,4.595-4.044l2.389-5.7c-1.654-4.411-3.308-8.822-5.146-13.417S38.954,16.911,37.3,12.5h3.86l8.087,21.872.184.735V34.74l8.639-22.056h3.676Z" transform="translate(31.257 -11.765)"/></g><g transform="translate(163.397 10.293)"><path class="e" d="M92.392,38.5a5.809,5.809,0,0,0,.735,3.492,2.862,2.862,0,0,0,2.573,1.1,7.328,7.328,0,0,0,3.676-1.287V45.3a10.363,10.363,0,0,1-2.206.735,6.9,6.9,0,0,1-1.838.184c-4.227,0-6.433-2.573-6.433-7.536V5.6h3.492V38.5Z" transform="translate(-88.9 -5.6)"/><path class="f" d="M113.212,40.07V36.394c-2.389,3.125-5.146,4.595-8.087,4.411h0c-6.617,0-9.925-4.044-9.925-12.315V12.684h3.492V27.939c0,3.492.551,5.882,1.654,7.352a6.047,6.047,0,0,0,5.146,2.389,6.783,6.783,0,0,0,4.227-1.287,12.919,12.919,0,0,0,3.492-4.044V12.5H116.7V40.07Z" transform="translate(-83.621 0.182)"/><path class="g" d="M112.292,40.4H108.8V12.835h3.492v3.308a10.538,10.538,0,0,1,8.639-4.044c3.125,0,5.33.919,6.984,2.941s2.389,4.779,2.389,8.639V40.4h-3.492V24.415c0-2.941-.551-5.33-1.654-6.8a6.079,6.079,0,0,0-4.779-2.389,14.212,14.212,0,0,0-4.963,1.47,7.616,7.616,0,0,0-3.308,3.492V40.4Z" transform="translate(-72.224 -0.153)"/><path class="h" d="M143.772,38.116a27.712,27.712,0,0,1-4.779,2.206,13.047,13.047,0,0,1-4.411.735,11.8,11.8,0,0,1-9.19-3.86C123,34.623,121.9,31.131,121.9,27.088a15.239,15.239,0,0,1,1.1-5.882,17.166,17.166,0,0,1,2.757-4.779,14.828,14.828,0,0,1,4.411-3.125,13.429,13.429,0,0,1,5.514-1.1,14.182,14.182,0,0,1,7.9,2.389l-2.022,2.573a11.825,11.825,0,0,0-6.433-1.838,9.312,9.312,0,0,0-7.168,3.125,12.483,12.483,0,0,0-2.757,8.271,12.006,12.006,0,0,0,2.573,7.9,8.042,8.042,0,0,0,6.617,2.941,10.744,10.744,0,0,0,6.984-2.389Z" transform="translate(-61.247 -0.069)"/><path class="i" d="M153.4,45.852V29.494q0-4.411-1.654-6.617c-1.1-1.47-2.757-2.022-4.963-2.022-3.125,0-5.7,2.022-8.087,6.065V46.036H135.2V5.6h3.492V21.958a10.706,10.706,0,0,1,8.639-4.227c3.125,0,5.33.919,6.984,2.941s2.389,4.779,2.389,8.455V46.036H153.4Z" transform="translate(-50.101 -5.6)"/></g><g transform="translate(100.905)"><path class="j" d="M76.747,43.184a2.7,2.7,0,0,0-1.47-2.757c-3.492-1.838-5.146-4.779-5.146-9.006,0-3.86,0-7.9.184-11.763V12.49a3.193,3.193,0,0,1,.551-2.206A3.954,3.954,0,0,1,72.7,9.917h.184c1.47,0,2.022.368,2.022,2.573V25.356a1.75,1.75,0,0,0,.368,1.287,1.4,1.4,0,0,0,.919.368h0c.368,0,.735,0,.919-.368a1.75,1.75,0,0,0,.368-1.287V12.306c0-2.206.551-2.389,2.022-2.573h0c1.654,0,2.022.368,2.022,2.573v13.05a1.75,1.75,0,0,0,.368,1.287,1.4,1.4,0,0,0,.919.368,2.612,2.612,0,0,0,1.1-.368,1.75,1.75,0,0,0,.368-1.287V12.49c0-2.206.551-2.573,2.022-2.573a4.918,4.918,0,0,1,2.022.368c.368.368.551.919.551,2.206v7.168c0,3.86,0,7.9.184,11.763,0,4.227-1.654,7.168-5.146,9.006a2.7,2.7,0,0,0-1.47,2.757v2.573a21.321,21.321,0,1,0-6.249,0V43.552C76.747,43.552,76.747,43.368,76.747,43.184Z" transform="translate(-52.302 2.765)"/><path class="k" d="M82.47,0A27.533,27.533,0,0,0,54.9,27.57c0,11.947,17.277,33.635,24.445,42.274,1.838,2.206,3.125,3.676,3.125,3.676a41.248,41.248,0,0,0,3.125-3.676C92.762,61.2,110.04,39.517,110.04,27.57A27.651,27.651,0,0,0,82.47,0Zm2.941,48.707V46.133a2.7,2.7,0,0,1,1.47-2.757c3.492-1.838,5.146-4.779,5.146-9.006,0-3.86,0-7.9-.184-11.763V15.439a3.193,3.193,0,0,0-.551-2.206c-.368-.368-.919-.368-2.022-.368-1.47,0-2.022.368-2.022,2.573V28.3a1.75,1.75,0,0,1-.368,1.287,1.554,1.554,0,0,1-1.1.368c-.368,0-.735,0-.919-.368a1.75,1.75,0,0,1-.368-1.287V15.255c0-2.206-.551-2.389-2.022-2.573h0c-1.654,0-2.022.368-2.022,2.573V28.3a1.75,1.75,0,0,1-.368,1.287,1.4,1.4,0,0,1-.919.368h0a1.4,1.4,0,0,1-.919-.368,1.75,1.75,0,0,1-.368-1.287V15.439c0-2.206-.551-2.573-2.022-2.573h-.184a3.954,3.954,0,0,0-1.838.368c-.368.368-.551.919-.551,2.206v7.168c0,3.86,0,7.9-.184,11.763,0,4.227,1.654,7.168,5.146,9.006a2.7,2.7,0,0,1,1.47,2.757v2.573A21.342,21.342,0,1,1,104.158,27.57C103.607,38.23,95.7,47.236,85.411,48.707Z" transform="translate(-54.9)"/></g></g></svg>