<svg xmlns="http://www.w3.org/2000/svg" viewBox="2710 2384 25 18.182"><defs><style>.a{fill:#333;}</style></defs><path class="a" d="M24.727,12.545V10.839a.572.572,0,0,0-.572-.566H4.845a.568.568,0,0,0-.572.566v1.707Zm0,3.409H4.273v7.389a.572.572,0,0,0,.572.566h19.31a.568.568,0,0,0,.572-.566ZM2,10.839A2.841,2.841,0,0,1,4.845,8h19.31A2.845,2.845,0,0,1,27,10.839v12.5a2.841,2.841,0,0,1-2.845,2.839H4.845A2.845,2.845,0,0,1,2,23.343ZM7.114,22.2a1.136,1.136,0,0,1,0-2.273H8.25a1.136,1.136,0,0,1,0,2.273Zm5.114,0a1.136,1.136,0,1,1,0-2.273h3.409a1.136,1.136,0,0,1,0,2.273Z" transform="translate(2708 2376)"/></svg>