<svg xmlns="http://www.w3.org/2000/svg" viewBox="9370 989 25.991 26"><defs><style>.a{fill:#525252;}</style></defs><path class="a" d="M25.361,22.213,22,19.41a.9.9,0,0,0-.908-.048l-1.869,1.246a1.182,1.182,0,0,1-.662.2,7.773,7.773,0,0,1-1.664-.234,10.04,10.04,0,0,1-7.478-7.478,7.772,7.772,0,0,1-.234-1.665,1.182,1.182,0,0,1,.2-.662L10.628,8.9a.886.886,0,0,0-.048-.908l-2.8-3.364a.555.555,0,0,0-.948,0L4.97,6.9a3.315,3.315,0,0,0-.514,2.646,1.182,1.182,0,0,1,.035.137,6.074,6.074,0,0,0,.185.654,15.193,15.193,0,0,0,.85,2.032A27.006,27.006,0,0,0,10.688,19.3a26.979,26.979,0,0,0,6.932,5.163,15.193,15.193,0,0,0,2.032.85,6.263,6.263,0,0,0,.655.185,1.182,1.182,0,0,1,.164.043,3.238,3.238,0,0,0,2.618-.522l2.27-1.857a.554.554,0,0,0,0-.949ZM19.778,17.4a3.241,3.241,0,0,1,3.732.2l3.364,2.8a2.906,2.906,0,0,1-.02,4.594l-2.27,1.857a5.574,5.574,0,0,1-4.8.956q-.439-.1-.867-.245a17.538,17.538,0,0,1-2.351-.981,29.348,29.348,0,0,1-7.548-5.607,29.352,29.352,0,0,1-5.606-7.548,17.538,17.538,0,0,1-.981-2.352,8.885,8.885,0,0,1-.248-.88A5.647,5.647,0,0,1,3.141,5.4L5,3.135a2.908,2.908,0,0,1,4.594-.02l2.8,3.364a3.231,3.231,0,0,1,.2,3.733l-1.021,1.531a6.988,6.988,0,0,0,.144.806,7.733,7.733,0,0,0,1.2,2.667,7.628,7.628,0,0,0,1.858,1.859,7.734,7.734,0,0,0,2.668,1.2,6.856,6.856,0,0,0,.805.144L19.778,17.4Z" transform="translate(9368 987)"/></svg>