<svg xmlns="http://www.w3.org/2000/svg" xmlns:xlink="http://www.w3.org/1999/xlink" viewBox="2864 105 37.5 50"><defs><style>.a{fill:none;}.b{fill:url(#a);}</style><linearGradient id="a" x1="0.5" y1="-0.01" x2="0.5" y2="0.999" gradientUnits="objectBoundingBox"><stop offset="0" stop-color="#f1c40f"/><stop offset="1" stop-color="#ffa300"/></linearGradient></defs><g transform="translate(2864 105)"><path class="a" d="M15.9,30.425a1.833,1.833,0,0,0-1-1.875,6.318,6.318,0,0,1-3.5-6.125c0-2.625,0-5.375.125-8V9.55a2.172,2.172,0,0,1,.375-1.5,2.689,2.689,0,0,1,1.25-.25h.125c1,0,1.375.25,1.375,1.75V18.3a1.19,1.19,0,0,0,.25.875.955.955,0,0,0,.625.25h0c.25,0,.5,0,.625-.25a1.19,1.19,0,0,0,.25-.875V9.425c0-1.5.375-1.625,1.375-1.75h0c1.125,0,1.375.25,1.375,1.75V18.3a1.19,1.19,0,0,0,.25.875.955.955,0,0,0,.625.25,1.777,1.777,0,0,0,.75-.25,1.19,1.19,0,0,0,.25-.875V9.55c0-1.5.375-1.75,1.375-1.75a3.345,3.345,0,0,1,1.375.25c.25.25.375.625.375,1.5v4.875c0,2.625,0,5.375.125,8a6.318,6.318,0,0,1-3.5,6.125,1.833,1.833,0,0,0-1,1.875v1.75A14.517,14.517,0,0,0,17.65,3.3a14.586,14.586,0,0,0-1.875,29V30.8A.459.459,0,0,0,15.9,30.425Z" transform="translate(0.85 0.825)"/><path class="b" d="M18.75,0A18.725,18.725,0,0,0,0,18.75C0,26.875,11.75,41.625,16.625,47.5,17.875,49,18.75,50,18.75,50a28.051,28.051,0,0,0,2.125-2.5C25.75,41.625,37.5,26.875,37.5,18.75A18.725,18.725,0,0,0,18.75,0Zm2,33.125v-1.75a1.833,1.833,0,0,1,1-1.875,6.318,6.318,0,0,0,3.5-6.125c0-2.625,0-5.375-.125-8V10.5A2.172,2.172,0,0,0,24.75,9c-.25-.25-.625-.25-1.375-.25C22.375,8.75,22,9,22,10.5v8.75a1.19,1.19,0,0,1-.25.875,1.057,1.057,0,0,1-.75.25c-.25,0-.5,0-.625-.25a1.19,1.19,0,0,1-.25-.875V10.375c0-1.5-.375-1.625-1.375-1.75h0c-1.125,0-1.375.25-1.375,1.75V19.25a1.19,1.19,0,0,1-.25.875.955.955,0,0,1-.625.25h0a.955.955,0,0,1-.625-.25,1.19,1.19,0,0,1-.25-.875V10.5c0-1.5-.375-1.75-1.375-1.75h-.125a2.689,2.689,0,0,0-1.25.25c-.375.125-.5.625-.5,1.375V15.25c0,2.625,0,5.375-.125,8a6.318,6.318,0,0,0,3.5,6.125,1.833,1.833,0,0,1,1,1.875V33A14.32,14.32,0,0,1,4.25,18.75a14.5,14.5,0,1,1,16.5,14.375Z"/></g></svg>