<svg xmlns="http://www.w3.org/2000/svg" xmlns:xlink="http://www.w3.org/1999/xlink" viewBox="2038 843 375 308"><defs><style>.a{clip-path:url(#n);}.b{opacity:0.7;}.c{fill:url(#a);}.d{fill:url(#b);}.e{fill:url(#c);}.f{fill:url(#d);}.g{fill:url(#e);}.h{fill:url(#g);}.i{fill:url(#i);}.j{fill:url(#l);}.k{fill:rgba(255,163,0,0);}</style><linearGradient id="a" x1="-4.145" y1="0.498" x2="1.628" y2="0.498" gradientUnits="objectBoundingBox"><stop offset="0" stop-color="#f1c40f"/><stop offset="1" stop-color="#ffa300"/></linearGradient><linearGradient id="b" x1="-5.686" y1="0.499" x2="9.667" y2="0.499" xlink:href="#a"/><linearGradient id="c" x1="-5.295" y1="0.5" x2="10.284" y2="0.5" xlink:href="#a"/><linearGradient id="d" x1="-4.011" y1="0.502" x2="9.659" y2="0.502" xlink:href="#a"/><linearGradient id="e" x1="-2.044" y1="0.499" x2="2.173" y2="0.499" xlink:href="#a"/><linearGradient id="g" x1="-3.724" y1="0.501" x2="2.202" y2="0.501" xlink:href="#a"/><linearGradient id="i" x1="-0.792" y1="0.5" x2="4.754" y2="0.5" gradientUnits="objectBoundingBox"><stop offset="0" stop-color="#f1c40f"/><stop offset="0.5" stop-color="#ffa300"/><stop offset="1" stop-color="#ffa300"/></linearGradient><linearGradient id="l" x1="-6.078" y1="0.502" x2="15.542" y2="0.502" xlink:href="#a"/><clipPath id="n"><rect x="2038" y="843" width="375" height="308"/></clipPath></defs><g id="m" class="a"><rect class="k" x="2038" y="843" width="375" height="308"/><g class="b" transform="translate(2038 483)"><path class="c" d="M246.817,61.047l-97.569,97.57a15.792,15.792,0,0,1-22.625,0h0a15.792,15.792,0,0,1,0-22.625l97.569-97.569a15.792,15.792,0,0,1,22.625,0h0A15.792,15.792,0,0,1,246.817,61.047Z" transform="translate(-153.632 326.915)"/><circle class="d" cx="24.392" cy="24.392" r="24.392" transform="translate(288.856 425.463)"/><path class="e" d="M101.663,113.832,62.032,153.463a11.819,11.819,0,0,1-16.785,0h0a11.819,11.819,0,0,1,0-16.785L84.878,97.047a11.82,11.82,0,0,1,16.785,0h0A11.819,11.819,0,0,1,101.663,113.832Z" transform="translate(183.34 436.401)"/><path class="f" d="M102.77,98.126,39.826,161.07a4.507,4.507,0,0,1-6.527,0h0a4.507,4.507,0,0,1,0-6.527L96.242,91.6a4.507,4.507,0,0,1,6.527,0h0C104.635,93.464,104.635,96.728,102.77,98.126Z" transform="translate(147.264 424.131)"/><path class="g" d="M157.559,108.012,75.912,189.659a7.092,7.092,0,0,1-10.423,0l-.434-.434a7.092,7.092,0,0,1,0-10.423l81.212-81.647a7.092,7.092,0,0,1,10.423,0l.434.434C160.165,100.629,160.165,105.407,157.559,108.012Z" transform="translate(182.605 494.369)"/><path class="g" d="M283.816,152.923a23.328,23.328,0,0,0-33.006,0L239.952,163.78l-3.909,3.909a16.583,16.583,0,1,1-23.452-23.452l3.909-3.909,10.857-10.857a23.339,23.339,0,0,0-33.006-33.006L79.265,211.552a23.339,23.339,0,1,0,33.006,33.006L123.128,233.7l20.412-20.412a16.583,16.583,0,1,1,23.452,23.452L146.58,257.152,135.723,268.01a23.339,23.339,0,0,0,33.006,33.006L283.816,185.929A23.328,23.328,0,0,0,283.816,152.923Z" transform="translate(214.864 476.819)"/><path class="h" d="M174.48,14.683,92.543,96.88a4.554,4.554,0,0,1-6.5,0h0a4.554,4.554,0,0,1,0-6.5L167.977,8.441a4.554,4.554,0,0,1,6.5,0h0A4.248,4.248,0,0,1,174.48,14.683Z" transform="translate(-116.875 623.279)"/><path class="h" d="M193.72,13.046,115.946,90.82a8.023,8.023,0,0,1-10.925,0h0a8.024,8.024,0,0,1,0-10.925L182.8,2.121a8.024,8.024,0,0,1,10.925,0h0A8.024,8.024,0,0,1,193.72,13.046Z" transform="translate(-87.734 611.911)"/><path class="i" d="M79.2,46.128,27.428,97.9a15.428,15.428,0,0,1-21.879,0h0a15.428,15.428,0,0,1,0-21.879L57.322,24.249a15.428,15.428,0,0,1,21.879,0h0A15.428,15.428,0,0,1,79.2,46.128Z" transform="translate(103.629 398.55)"/><path class="i" d="M78.2,66.145,26.428,117.918a15.428,15.428,0,0,1-21.879,0h0a15.428,15.428,0,0,1,0-21.879l51.773-51.99a15.428,15.428,0,0,1,21.879,0h0A15.69,15.69,0,0,1,78.2,66.145Z" transform="translate(102.463 421.642)"/><circle class="i" cx="14.346" cy="14.346" r="14.346" transform="translate(57.042 555.716)"/><circle class="j" cx="9.346" cy="9.346" r="9.346" transform="translate(150.042 655.716)"/></g></g></svg>