<svg xmlns="http://www.w3.org/2000/svg" viewBox="2710 2523 21 28">
  <defs>
    <style>
      .cls-1 {
        fill: #333;
      }
    </style>
  </defs>
  <g id="a-propos" transform="translate(2469 2294)">
    <path id="Tracé_7" data-name="Tracé 7" class="cls-1" d="M10.5,0A10.486,10.486,0,0,0,0,10.5c0,4.55,6.58,12.81,9.31,16.1.7.84,1.19,1.4,1.19,1.4a15.709,15.709,0,0,0,1.19-1.4C14.42,23.31,21,15.05,21,10.5A10.486,10.486,0,0,0,10.5,0Zm1.12,18.55v-.98a1.026,1.026,0,0,1,.56-1.05,3.538,3.538,0,0,0,1.96-3.43c0-1.47,0-3.01-.07-4.48V5.88a1.216,1.216,0,0,0-.21-.84c-.14-.14-.35-.14-.77-.14-.56,0-.77.14-.77.98v4.9a.666.666,0,0,1-.14.49.592.592,0,0,1-.42.14c-.14,0-.28,0-.35-.14a.666.666,0,0,1-.14-.49V5.81c0-.84-.21-.91-.77-.98h0c-.63,0-.77.14-.77.98v4.97a.666.666,0,0,1-.14.49.535.535,0,0,1-.35.14h0a.535.535,0,0,1-.35-.14.666.666,0,0,1-.14-.49V5.88c0-.84-.21-.98-.77-.98H7.91a1.506,1.506,0,0,0-.7.14c-.21.07-.28.35-.28.77V8.54c0,1.47,0,3.01-.07,4.48a3.538,3.538,0,0,0,1.96,3.43,1.026,1.026,0,0,1,.56,1.05v.98a8.019,8.019,0,0,1-7-7.98,8.12,8.12,0,1,1,9.24,8.05Z" transform="translate(241 229)"/>
  </g>
</svg>
