<svg height="48" viewBox="0 0 48 48" width="48" xmlns="http://www.w3.org/2000/svg"><path d="m13.42 8a5.003 5.003 0 0 1 4.573-3h.422a5 5 0 0 1 4.587-3h1.996a5.005 5.005 0 0 1 4.585 3h.424a4.994 4.994 0 0 1 4.575 3h1.418a5 5 0 0 1 5 5.002v27.996a5.004 5.004 0 0 1 -5 5.002h-24a5 5 0 0 1 -5-5.002v-27.996a5.004 5.004 0 0 1 5-5.002zm-.318 4h-1.102c-.55 0-1 .45-1 1.002v27.996a1 1 0 0 0 1 1.002h24c.55 0 1-.45 1-1.002v-27.996a1 1 0 0 0 -1-1.002h-1.102c-.467 2.28-2.485 4-4.89 4h-12.016c-2.414 0-4.426-1.72-4.891-4zm6.898-3h-2.007a1.01 1.01 0 0 0 -.993 1.01v.98c0 .56.448 1.01.993 1.01h12.014c.539 0 .993-.455.993-1.01v-.98c0-.56-.448-1.01-.993-1.01h-2.007a2 2 0 0 1 -2-2c0-.55-.45-1-1.002-1h-1.996a.998.998 0 0 0 -1.002 1 2 2 0 0 1 -2 2zm-4.414 14.414a2 2 0 1 1 2.828-2.828 2 2 0 0 1 -2.828 2.828zm7.414.586a2 2 0 1 1 0-4h8a2 2 0 1 1 0 4zm-7.414 6.414a2 2 0 1 1 2.828-2.828 2 2 0 0 1 -2.828 2.828zm7.414.586a2 2 0 1 1 0-4h8a2 2 0 1 1 0 4zm-7.414 6.414a2 2 0 1 1 2.828-2.828 2 2 0 0 1 -2.828 2.828zm7.414.586a2 2 0 1 1 0-4h8a2 2 0 1 1 0 4z"/></svg>