<svg xmlns="http://www.w3.org/2000/svg" viewBox="2985 623 26 26"><defs><style>.a{fill:#f1c40f;}</style></defs><path class="a" d="M15,15a6.5,6.5,0,1,1,6.5-6.5A6.5,6.5,0,0,1,15,15Zm0-2.364A4.136,4.136,0,1,0,10.864,8.5,4.136,4.136,0,0,0,15,12.636Zm12.3,8.37a7.611,7.611,0,0,1,.479,1.961q.131.906.2,1.818l.014.177,0,.084A2.955,2.955,0,0,1,25.049,28H4.951A2.955,2.955,0,0,1,2,25.045l0-.084.014-.177q.076-.912.2-1.818A7.611,7.611,0,0,1,2.7,21.006c.908-1.972,7.594-4.824,12.3-4.824S26.393,19.034,27.3,21.006Zm-2.267.9a6.083,6.083,0,0,0-.694-.506,17.177,17.177,0,0,0-2.475-1.279A18.231,18.231,0,0,0,15,18.545a18.234,18.234,0,0,0-6.864,1.575A17.177,17.177,0,0,0,5.661,21.4a6.137,6.137,0,0,0-.694.506,1.8,1.8,0,0,0-.14.135,7.383,7.383,0,0,0-.267,1.268c-.058.4-.108.824-.149,1.253-.021.221-.037.4-.046.515a.591.591,0,0,0,.587.559h20.1a.591.591,0,0,0,.587-.559c-.009-.115-.024-.294-.046-.514q-.059-.628-.15-1.253a7.383,7.383,0,0,0-.267-1.268,1.68,1.68,0,0,0-.14-.135Z" transform="translate(2983 621)"/></svg>