<svg xmlns="http://www.w3.org/2000/svg" viewBox="2710 2310 25 21.591"><defs><style>.a{fill:#333;}</style></defs><g transform="translate(2708 2305)"><g transform="translate(2 5)"><path class="a" d="M11.659,14.091A4.545,4.545,0,1,1,16.2,9.545,4.545,4.545,0,0,1,11.659,14.091Zm0-2.273A2.273,2.273,0,1,0,9.386,9.545,2.273,2.273,0,0,0,11.659,11.818Zm5.113,12.5H4.412A2.414,2.414,0,0,1,2,21.9l0-.081c.007-.095.02-.254.039-.458.033-.34.072-.68.12-1a5.672,5.672,0,0,1,.368-1.492c.71-1.543,5.636-3.644,9.129-3.644A16.1,16.1,0,0,1,17.6,16.612a5.682,5.682,0,1,1-.829,7.707ZM15.75,22.045h0a5.709,5.709,0,0,1,.429-3.564,12.616,12.616,0,0,0-4.52-.982A12.877,12.877,0,0,0,6.82,18.613a12.115,12.115,0,0,0-1.743.9,4.131,4.131,0,0,0-.467.34l-.041.037a6.269,6.269,0,0,0-.159.8c-.041.28-.077.585-.106.89-.014.143-.024.261-.03.342a.142.142,0,0,0,.138.121Zm4.1-2.508a1.136,1.136,0,0,0-1.607,1.607l1.7,1.7a1.136,1.136,0,0,0,1.607,0l2.841-2.841A1.136,1.136,0,0,0,22.787,18.4L20.75,20.438Z" transform="translate(-2 -5)"/></g></g></svg>