<svg xmlns="http://www.w3.org/2000/svg" xmlns:xlink="http://www.w3.org/1999/xlink" viewBox="2893 2097 21.271 26"><defs><style>.a{fill:url(#a);}</style><linearGradient id="a" x1="0.5" x2="0.5" y2="1" gradientUnits="objectBoundingBox"><stop offset="0" stop-color="#f1c40f"/><stop offset="1" stop-color="#ffa300"/></linearGradient></defs><g transform="translate(2887 2095)"><g transform="translate(6 2)"><path class="a" d="M7.71,27.874A1.182,1.182,0,0,1,6,26.817V4.958A2.952,2.952,0,0,1,8.952,2H24.319a2.954,2.954,0,0,1,2.952,2.958V26.817a1.182,1.182,0,0,1-1.71,1.057l-1.835-.918-1.835.918a1.182,1.182,0,0,1-1.057,0L19,26.956l-1.835.918a1.182,1.182,0,0,1-1.057,0l-1.835-.918-1.835.918a1.182,1.182,0,0,1-1.057,0l-1.835-.918Zm17.2-22.916a.59.59,0,0,0-.589-.595H8.952a.589.589,0,0,0-.589.595V24.9l.653-.327a1.182,1.182,0,0,1,1.057,0l1.835.918,1.835-.918a1.182,1.182,0,0,1,1.057,0l1.835.918,1.835-.918a1.182,1.182,0,0,1,1.057,0l1.835.918,1.835-.918a1.182,1.182,0,0,1,1.057,0l.653.327ZM12.5,10.272a1.182,1.182,0,1,1,0-2.363h8.272a1.182,1.182,0,1,1,0,2.363Zm0,4.136a1.182,1.182,0,1,1,0-2.363h8.272a1.182,1.182,0,1,1,0,2.363Zm0,4.136a1.182,1.182,0,1,1,0-2.363h4.727a1.182,1.182,0,1,1,0,2.363Z" transform="translate(-6 -2)"/></g></g></svg>